<svg width="306" height="262" viewBox="0 0 306 262" fill="none" xmlns="http://www.w3.org/2000/svg">
<g filter="url(#filter0_b_1_26)">
<rect x="95.0844" y="190.873" width="119" height="119" rx="12" transform="rotate(-90 95.0844 190.873)" fill="#FC0000" fill-opacity="0.6"/>
</g>
<g filter="url(#filter1_b_1_26)">
<path d="M143.587 190.779C134.349 190.743 128.616 180.72 133.266 172.738L183.84 85.9379C188.491 77.9563 200.037 78.0021 204.625 86.0203L254.509 173.219C259.096 181.237 253.283 191.214 244.045 191.177L143.587 190.779Z" fill="#FFD600" fill-opacity="0.55"/>
</g>
<g filter="url(#filter2_b_1_26)">
<path d="M51.4142 89.9656C46.786 81.9711 52.5477 71.9643 61.7853 71.9534L162.244 71.8351C171.482 71.8242 177.267 81.8174 172.658 89.8228L122.531 176.882C117.921 184.887 106.374 184.901 101.746 176.906L51.4142 89.9656Z" fill="#0500FF" fill-opacity="0.55"/>
</g>
<defs>
<filter id="filter0_b_1_26" x="91.0844" y="67.8729" width="127" height="127" filterUnits="userSpaceOnUse" color-interpolation-filters="sRGB">
<feFlood flood-opacity="0" result="BackgroundImageFix"/>
<feGaussianBlur in="BackgroundImageFix" stdDeviation="2"/>
<feComposite in2="SourceAlpha" operator="in" result="effect1_backgroundBlur_1_26"/>
<feBlend mode="normal" in="SourceGraphic" in2="effect1_backgroundBlur_1_26" result="shape"/>
</filter>
<filter id="filter1_b_1_26" x="127.617" y="75.9791" width="132.494" height="119.198" filterUnits="userSpaceOnUse" color-interpolation-filters="sRGB">
<feFlood flood-opacity="0" result="BackgroundImageFix"/>
<feGaussianBlur in="BackgroundImageFix" stdDeviation="2"/>
<feComposite in2="SourceAlpha" operator="in" result="effect1_backgroundBlur_1_26"/>
<feBlend mode="normal" in="SourceGraphic" in2="effect1_backgroundBlur_1_26" result="shape"/>
</filter>
<filter id="filter2_b_1_26" x="45.7815" y="67.8351" width="132.495" height="119.059" filterUnits="userSpaceOnUse" color-interpolation-filters="sRGB">
<feFlood flood-opacity="0" result="BackgroundImageFix"/>
<feGaussianBlur in="BackgroundImageFix" stdDeviation="2"/>
<feComposite in2="SourceAlpha" operator="in" result="effect1_backgroundBlur_1_26"/>
<feBlend mode="normal" in="SourceGraphic" in2="effect1_backgroundBlur_1_26" result="shape"/>
</filter>
</defs>
</svg>
